<svg width="511.996" height="511.996" xmlns="http://www.w3.org/2000/svg">

 <g>
  <title>background</title>
  <rect fill="none" id="canvas_background" height="602" width="802" y="-1" x="-1"/>
 </g>
 <g>
  <title>Layer 1</title>
  <g transform="rotate(90.07147216796875 255.99749755859378,256.9979248046875) " id="svg_1">
   <g id="svg_2">
    <g id="svg_3">
     <path fill="#e5d00a" id="svg_4" d="m389.826,122.758l-128,-119.467c-3.285,-3.055 -8.363,-3.055 -11.648,0l-128,119.467c-1.724,1.613 -2.714,3.874 -2.714,6.238l0,136.533c0,3.448 2.082,6.562 5.274,7.885c3.191,1.323 6.852,0.589 9.293,-1.852l121.967,-121.967l121.967,121.967c1.638,1.63 3.823,2.5 6.033,2.5c1.101,0 2.21,-0.213 3.268,-0.648c3.192,-1.323 5.265,-4.437 5.265,-7.885l0,-136.533c0,-2.364 -0.981,-4.625 -2.705,-6.238z"/>
     <path fill="#e5d00a" id="svg_5" d="m261.826,242.225c-3.285,-3.055 -8.363,-3.055 -11.648,0l-128,119.467c-1.724,1.613 -2.714,3.874 -2.714,6.238l0,136.533c0,3.447 2.082,6.562 5.274,7.885c3.191,1.314 6.852,0.597 9.293,-1.852l121.967,-121.967l121.967,121.967c1.638,1.63 3.823,2.5 6.033,2.5c1.101,0 2.21,-0.213 3.268,-0.648c3.192,-1.323 5.265,-4.437 5.265,-7.885l0,-136.534c0,-2.364 -0.981,-4.625 -2.705,-6.238l-128,-119.466z"/>
    </g>
   </g>
  </g>
  <g id="svg_6"/>
  <g id="svg_7"/>
  <g id="svg_8"/>
  <g id="svg_9"/>
  <g id="svg_10"/>
  <g id="svg_11"/>
  <g id="svg_12"/>
  <g id="svg_13"/>
  <g id="svg_14"/>
  <g id="svg_15"/>
  <g id="svg_16"/>
  <g id="svg_17"/>
  <g id="svg_18"/>
  <g id="svg_19"/>
  <g id="svg_20"/>
  <rect stroke="#000" stroke-dasharray="2,2" transform="rotate(90.14713287353516 252.49557495117188,256.9862976074219) " id="svg_21" height="246" width="273.87659" y="133.98629" x="115.55728" stroke-width="0" fill="#e5d00a"/>
 </g>
</svg>